<?xml version="1.0" standalone="no"?>
<!DOCTYPE svg PUBLIC "-//W3C//DTD SVG 20010904//EN"
 "http://www.w3.org/TR/2001/REC-SVG-20010904/DTD/svg10.dtd">
<svg version="1.0" xmlns="http://www.w3.org/2000/svg"
 width="100.000000pt" height="100.000000pt" viewBox="0 0 16 16"
 preserveAspectRatio="xMidYMid meet">

<g transform="translate(0.000000,1790.000000) scale(0.100000,-0.100000)"
fill="#000000" stroke="none">
<path d="M8555 17623 l-470 -14 -405 -54 -405 -53 -482 -121 -483 -121 -717
-298 -718 -298 -506 -315 -505 -315 -258 -227 c-141 -125 -261 -227 -267 -227
-6 0 -33 -10 -61 -22 -44 -19 -123 -98 -639 -645 l-588 -624 -38 -91 c-33 -82
-63 -125 -270 -392 l-233 -300 -264 -510 -264 -511 -260 -785 -261 -785 -101
-705 -100 -705 0 -506 0 -507 51 -468 50 -469 193 -770 194 -770 380 -792 380
-793 277 -397 276 -398 332 -348 c285 -300 334 -355 345 -394 17 -57 92 -135
149 -154 32 -11 67 -43 166 -153 121 -134 162 -170 218 -191 14 -5 54 -43 89
-83 55 -65 96 -96 358 -271 237 -158 303 -207 328 -243 17 -25 47 -56 65 -70
19 -14 336 -187 704 -385 l670 -360 415 -155 c399 -150 431 -160 820 -261
l405 -105 485 -71 485 -70 405 -15 405 -16 830 70 830 69 543 140 543 140 392
153 392 153 700 383 700 384 110 107 c97 96 130 120 284 212 158 94 180 111
235 177 45 55 74 80 112 97 41 18 77 51 180 164 109 121 138 147 191 172 61
29 73 42 610 684 l548 654 357 628 c196 345 364 644 372 663 9 19 122 330 251
690 l235 655 141 838 140 839 -17 766 -16 767 -89 536 c-87 524 -91 544 -177
855 l-89 319 -317 750 c-175 413 -326 767 -336 787 -11 20 -235 353 -500 740
l-480 704 -592 573 -591 573 -676 451 -676 451 -800 329 -800 330 -430 104
-430 103 -355 40 c-195 22 -467 53 -605 70 -287 35 -325 35 -1070 13z m1070
-283 c44 -6 150 -17 235 -25 85 -8 173 -19 195 -24 22 -5 78 -12 124 -16 46
-4 96 -11 110 -16 14 -6 61 -14 106 -20 76 -9 118 -17 280 -55 39 -9 99 -22
135 -29 141 -30 177 -38 233 -56 31 -11 67 -19 79 -19 12 0 49 -8 82 -19 34
-10 81 -24 106 -31 85 -22 213 -63 265 -85 33 -14 110 -40 165 -56 19 -6 49
-16 65 -23 37 -17 131 -52 165 -62 14 -3 34 -13 45 -20 11 -8 28 -14 38 -14
10 0 31 -6 45 -14 15 -8 77 -36 137 -61 125 -53 159 -68 265 -119 41 -19 86
-40 100 -46 14 -5 32 -14 40 -19 8 -6 62 -33 120 -60 58 -28 137 -69 175 -91
39 -22 88 -49 110 -60 22 -11 58 -31 80 -45 22 -13 49 -29 60 -35 11 -6 40
-24 65 -40 25 -16 52 -33 60 -37 8 -4 36 -22 62 -40 26 -18 51 -33 56 -33 4 0
22 -10 39 -22 17 -13 39 -28 50 -35 10 -7 41 -28 68 -48 28 -19 66 -44 85 -55
19 -11 60 -38 90 -61 30 -22 66 -47 80 -57 14 -9 27 -19 30 -22 3 -3 25 -19
50 -35 61 -41 253 -186 265 -200 6 -7 57 -49 115 -95 58 -46 112 -91 121 -99
31 -30 94 -86 154 -135 93 -77 403 -378 515 -501 138 -151 169 -186 215 -240
28 -33 66 -78 86 -100 97 -108 413 -526 474 -626 12 -20 86 -129 97 -144 30
-38 81 -115 94 -140 8 -16 35 -61 59 -100 24 -38 61 -99 82 -134 21 -35 48
-80 60 -100 11 -20 38 -67 58 -106 20 -38 54 -101 75 -140 42 -75 82 -154 99
-195 6 -14 15 -32 20 -40 9 -14 38 -77 60 -130 6 -14 15 -32 20 -40 4 -8 17
-35 28 -60 12 -25 30 -66 42 -91 12 -25 21 -50 21 -54 0 -4 9 -27 20 -51 11
-24 29 -64 40 -88 11 -24 20 -49 20 -55 0 -7 9 -29 19 -49 25 -47 61 -137 61
-152 0 -7 6 -26 14 -43 16 -37 41 -110 61 -180 7 -26 18 -53 23 -60 5 -7 13
-29 16 -51 4 -21 13 -52 20 -70 8 -17 19 -51 26 -76 32 -123 42 -158 56 -187
8 -17 14 -42 14 -55 0 -13 9 -49 20 -81 11 -31 20 -67 20 -80 0 -13 8 -53 19
-88 21 -71 37 -143 53 -234 5 -33 18 -96 29 -140 10 -45 19 -94 19 -111 0 -17
6 -53 14 -80 8 -27 20 -101 25 -164 6 -63 15 -131 21 -150 5 -19 14 -98 20
-175 6 -77 15 -168 20 -202 31 -191 30 -1239 0 -1418 -5 -33 -15 -121 -20
-195 -6 -74 -15 -152 -20 -172 -6 -20 -15 -85 -20 -145 -6 -59 -17 -137 -25
-173 -8 -36 -19 -90 -24 -120 -9 -51 -14 -78 -41 -207 -24 -122 -34 -163 -50
-223 -24 -85 -39 -144 -51 -200 -13 -55 -46 -174 -60 -215 -6 -16 -17 -53 -24
-82 -7 -28 -16 -57 -20 -63 -4 -6 -13 -35 -20 -63 -16 -61 -42 -140 -60 -182
-23 -53 -55 -140 -55 -150 -1 -6 -9 -28 -20 -50 -11 -22 -19 -46 -20 -54 0 -8
-8 -32 -19 -55 -10 -23 -29 -66 -41 -96 -25 -63 -38 -93 -74 -172 -14 -31 -26
-60 -26 -64 0 -28 -297 -617 -361 -714 -5 -8 -16 -28 -25 -45 -8 -16 -26 -48
-39 -70 -14 -22 -30 -51 -37 -65 -7 -14 -36 -60 -65 -103 -29 -43 -53 -81 -53
-84 0 -4 -11 -23 -24 -42 -13 -20 -37 -56 -52 -80 -16 -24 -36 -54 -44 -66 -8
-12 -24 -35 -35 -51 -68 -102 -254 -351 -368 -494 -83 -104 -190 -234 -222
-270 -22 -26 -65 -75 -95 -111 -168 -196 -513 -537 -759 -749 -36 -30 -74 -64
-85 -75 -12 -11 -78 -65 -148 -120 -123 -96 -187 -144 -363 -275 -44 -32 -91
-68 -105 -78 -50 -39 -251 -172 -259 -172 -5 0 -14 -7 -21 -15 -11 -13 -36
-30 -155 -100 -18 -11 -75 -44 -127 -73 -51 -29 -100 -57 -108 -63 -8 -5 -28
-16 -45 -25 -16 -8 -66 -34 -110 -58 -88 -48 -324 -166 -395 -198 -25 -11 -62
-29 -82 -39 -20 -11 -43 -19 -51 -19 -8 0 -20 -6 -26 -14 -7 -8 -24 -17 -39
-20 -15 -4 -40 -13 -57 -21 -89 -42 -145 -65 -157 -65 -8 0 -18 -4 -24 -9 -5
-5 -47 -24 -94 -41 -47 -18 -98 -38 -115 -45 -16 -7 -57 -23 -90 -35 -33 -12
-80 -30 -105 -39 -61 -25 -168 -58 -210 -67 -19 -3 -41 -10 -50 -15 -8 -5 -40
-15 -70 -23 -30 -8 -75 -20 -100 -26 -25 -7 -74 -20 -110 -30 -117 -32 -186
-49 -335 -85 -38 -9 -95 -22 -125 -30 -164 -39 -242 -55 -305 -60 -38 -3 -84
-11 -102 -16 -17 -5 -87 -16 -155 -24 -67 -7 -154 -18 -193 -24 -38 -5 -122
-15 -185 -21 -63 -6 -158 -16 -210 -21 -128 -14 -1114 -14 -1255 0 -60 6 -173
18 -251 25 -77 8 -158 19 -180 25 -21 6 -87 15 -145 20 -58 6 -117 14 -130 20
-14 5 -56 12 -94 16 -39 4 -95 13 -125 20 -30 7 -80 16 -110 20 -30 4 -69 13
-86 20 -17 7 -55 16 -85 20 -30 4 -62 11 -71 16 -10 5 -48 16 -85 23 -82 18
-138 32 -219 57 -33 11 -68 19 -77 19 -10 0 -43 9 -74 20 -32 11 -66 20 -78
20 -11 1 -38 9 -60 20 -22 11 -49 20 -60 20 -11 0 -38 9 -60 20 -22 11 -49 20
-60 20 -11 0 -33 7 -48 15 -15 8 -45 17 -65 21 -20 4 -53 15 -72 25 -19 11
-42 19 -50 19 -9 0 -24 6 -35 14 -11 7 -31 17 -45 21 -28 8 -100 38 -143 60
-16 8 -33 15 -38 15 -6 0 -36 12 -67 26 -56 26 -96 44 -189 85 -91 40 -109 48
-273 127 -91 44 -172 82 -180 86 -34 14 -235 129 -408 233 -20 12 -46 26 -57
31 -12 6 -27 17 -34 26 -7 9 -18 16 -23 16 -5 0 -21 8 -36 18 -15 11 -47 32
-72 48 -25 16 -46 32 -48 37 -2 4 -9 7 -15 7 -15 1 -234 151 -328 224 -14 12
-36 28 -49 36 -12 8 -46 33 -74 55 -28 23 -94 73 -146 112 -80 60 -170 135
-380 318 -305 266 -637 609 -894 924 -43 53 -96 117 -117 142 -22 26 -54 66
-71 90 -17 24 -44 58 -60 74 -17 17 -37 43 -45 59 -8 16 -19 34 -24 40 -36 45
-118 158 -154 214 -13 20 -38 57 -55 82 -58 86 -120 182 -120 186 0 2 -16 27
-35 55 -20 27 -40 60 -46 72 -6 12 -20 38 -32 58 -27 44 -94 157 -123 207 -22
38 -227 445 -238 472 -3 8 -10 22 -15 30 -5 8 -18 35 -29 60 -11 25 -32 72
-47 105 -15 33 -36 80 -47 105 -11 25 -26 57 -34 72 -8 14 -14 32 -14 40 0 7
-9 30 -20 51 -11 20 -20 43 -20 50 0 7 -9 29 -20 50 -11 20 -20 45 -20 55 0
10 -7 28 -16 41 -9 13 -20 37 -25 55 -11 44 -48 148 -58 166 -5 9 -12 31 -16
50 -4 19 -13 49 -20 65 -28 65 -47 128 -90 305 -9 36 -23 80 -31 98 -8 18 -14
42 -14 52 0 11 -9 46 -19 77 -11 32 -22 81 -26 108 -4 28 -11 58 -16 67 -5 10
-16 50 -23 90 -8 40 -19 91 -25 113 -5 22 -15 69 -20 105 -12 74 -26 153 -42
238 -25 138 -62 437 -80 652 -25 300 -28 370 -28 750 1 386 5 517 28 730 6 58
15 148 21 200 5 52 14 122 19 155 6 33 15 96 20 140 17 125 30 203 52 296 10
47 19 100 19 117 0 17 7 53 16 79 9 26 20 70 24 98 8 56 36 174 52 220 6 17
16 57 23 91 6 34 16 67 20 74 5 7 14 38 21 69 6 31 17 70 23 86 20 58 42 130
52 170 5 22 14 49 19 60 12 26 49 131 59 170 4 17 15 44 24 62 10 18 17 39 17
47 0 9 9 35 19 58 10 24 29 68 41 98 12 30 31 74 41 98 10 23 19 51 19 61 0
10 7 24 15 31 8 7 15 19 15 27 0 14 13 46 99 233 11 25 25 56 30 70 6 14 15
32 21 40 5 8 14 26 20 40 5 14 14 32 19 40 5 8 14 26 20 40 6 14 15 33 21 43
21 36 31 54 66 122 20 39 56 106 80 150 24 44 51 94 59 110 9 17 27 48 40 70
13 22 31 54 40 70 22 42 29 54 153 245 41 63 83 126 93 140 10 14 49 70 86
125 82 121 329 451 388 520 154 180 199 232 277 321 112 128 395 414 523 529
55 49 123 111 150 137 28 25 68 61 90 78 22 17 42 35 45 38 3 4 21 19 42 34
20 15 42 34 50 41 36 36 247 202 320 252 46 31 110 76 143 101 56 41 117 84
156 109 42 26 109 71 162 106 32 21 60 39 63 39 3 0 17 8 32 19 58 40 148 97
172 108 14 7 32 17 40 22 31 20 229 131 234 131 3 0 22 11 42 25 30 21 219
116 274 139 8 3 22 10 30 15 28 19 270 131 280 131 6 0 28 9 48 19 58 30 128
61 138 61 5 0 29 10 54 21 99 47 194 86 231 94 19 4 39 12 46 17 7 5 34 16 60
23 26 7 80 25 118 40 39 14 86 30 106 35 19 5 49 16 65 25 16 8 38 15 49 15
11 0 47 9 80 19 33 11 92 28 130 39 39 11 95 28 125 37 63 19 161 42 240 56
30 6 78 16 105 24 28 8 77 18 110 24 33 5 72 14 86 19 15 6 60 14 100 17 41 4
99 13 129 20 30 7 87 16 125 20 39 3 95 13 125 20 30 7 120 16 200 20 80 4
174 11 210 17 158 26 1194 32 1385 8z"/>
<path d="M8919 12388 c-119 -198 -246 -405 -604 -988 -161 -261 -497 -810
-747 -1220 -596 -975 -738 -1205 -743 -1205 -5 0 -35 48 -467 750 -133 215
-253 408 -268 430 -36 53 -473 747 -799 1270 -144 231 -271 428 -283 438 -19
16 -124 17 -1894 17 -1571 0 -1875 -2 -1880 -14 -5 -14 171 -307 893 -1481
236 -385 488 -794 558 -910 186 -305 605 -990 885 -1445 134 -217 287 -467
340 -555 104 -172 458 -749 717 -1170 88 -143 243 -386 345 -540 562 -852 591
-898 579 -917 -16 -26 1 -22 20 5 9 12 121 193 249 402 128 209 333 532 456
718 123 186 224 339 224 341 0 2 -100 158 -221 347 -122 189 -265 412 -317
494 -53 83 -99 153 -102 158 -4 4 -74 -94 -156 -217 -82 -124 -151 -225 -154
-225 -10 0 -325 504 -325 519 0 8 -7 26 -17 40 -9 14 -90 147 -181 295 -90
149 -243 398 -339 555 -96 157 -322 526 -503 820 -180 294 -487 794 -681 1111
-195 317 -354 579 -354 583 0 10 1246 7 1272 -3 30 -11 30 -10 324 -491 386
-631 429 -703 441 -731 10 -24 284 -468 738 -1199 115 -184 238 -387 275 -450
36 -63 105 -180 152 -260 47 -80 95 -164 107 -188 21 -42 98 -162 351 -552
134 -207 134 -208 352 -565 291 -477 904 -1480 1131 -1850 214 -348 309 -503
474 -772 98 -160 190 -312 205 -337 18 -31 34 -46 48 -46 22 0 24 3 224 330
62 102 253 412 423 690 171 278 368 600 438 715 717 1176 1093 1786 1110 1799
16 13 645 1010 645 1023 0 5 28 54 61 108 165 268 709 1156 1009 1650 37 61
69 121 72 135 6 31 544 912 586 960 l30 35 628 3 c371 1 631 -1 637 -7 5 -5
-91 -172 -246 -422 -283 -461 -578 -942 -762 -1244 -216 -356 -426 -699 -465
-760 -43 -69 -512 -832 -635 -1035 -45 -74 -118 -194 -162 -265 -43 -72 -82
-139 -86 -149 -11 -28 -17 -20 -161 222 -70 116 -131 212 -136 212 -6 0 -581
-879 -645 -987 l-18 -31 50 -84 c133 -222 464 -767 585 -963 247 -403 281
-455 297 -455 10 0 70 89 157 233 236 388 470 770 619 1012 176 284 562 914
745 1215 75 124 271 443 435 710 164 267 447 728 628 1025 181 297 432 707
557 910 1016 1655 1164 1899 1164 1920 1 20 -5 20 -1897 20 l-1899 0 -22 -26
c-21 -25 -48 -68 -288 -464 -63 -104 -257 -424 -430 -710 -174 -286 -347 -577
-386 -646 -39 -70 -86 -151 -105 -180 -32 -50 -148 -240 -429 -704 -60 -99
-113 -180 -118 -180 -9 0 -442 701 -1100 1780 -101 165 -314 514 -475 775
-161 261 -361 588 -445 725 -84 138 -159 260 -166 273 -8 12 -18 22 -23 22 -5
0 -51 -69 -102 -152z m147 -1975 c15 -27 228 -374 472 -773 245 -399 525 -855
622 -1015 97 -159 231 -379 298 -488 67 -108 122 -200 122 -203 0 -4 -89 -151
-197 -328 -275 -449 -933 -1521 -1008 -1641 -34 -55 -124 -202 -201 -328 -92
-150 -144 -227 -154 -225 -8 2 -97 138 -198 303 -101 165 -383 624 -626 1020
-652 1059 -726 1182 -726 1198 0 8 60 113 134 233 73 121 232 381 353 579 121
198 348 569 505 825 157 256 343 561 414 677 84 139 135 213 146 213 9 0 28
-21 44 -47z"/>
</g>
</svg>
